<?xml version="1.0" encoding="utf-8"?>
<!-- Generator: Adobe Illustrator 17.0.0, SVG Export Plug-In . SVG Version: 6.00 Build 0)  -->
<!DOCTYPE svg PUBLIC "-//W3C//DTD SVG 1.1//EN" "http://www.w3.org/Graphics/SVG/1.1/DTD/svg11.dtd">
<svg version="1.1" id="Layer_1" xmlns="http://www.w3.org/2000/svg" xmlns:xlink="http://www.w3.org/1999/xlink" x="0px" y="0px"
	 width="1307.544px" height="460px" viewBox="0 0 1307.544 460" enable-background="new 0 0 1307.544 460" xml:space="preserve">
<g>
	<polygon fill="#BDBDBD" points="244.694,51.995 89.993,141.312 89.993,319.946 113.853,333.721 244.694,409.262 399.396,319.946 
		399.396,141.312 	"/>
	<g>
		<path fill="#3E3E3E" d="M245.52,51.376L90.199,141.05v179.349l23.955,13.831l131.365,75.844l155.32-89.674V141.05L245.52,51.376z
			 M367.775,183.048c-0.958,0.579-0.966,1.541-0.647,2.558c0.035,0.004,0.068,0.005,0.103,0.008
			c-1.028,0.582-2.056,1.15-3.084,1.698c0.068-0.124,0.131-0.255,0.189-0.394c-0.152-0.331-0.55-0.525-0.542-0.946
			c-0.802-0.179-1.346-0.977-2.249-0.916c-0.965,1.235,0.038,2.287,0.326,3.405c0.02,0.003,0.039,0.004,0.059,0.006
			c-0.654,0.334-1.308,0.66-1.961,0.98c-0.046-0.035-0.091-0.071-0.136-0.111c-0.603,0.059-1.001-0.296-1.398-0.674
			c-0.311-0.296-0.63-0.588-0.974-0.843c-0.299-0.221-0.64-0.46-1.032-0.223c-0.456,0.276-0.401,0.718-0.288,1.149
			c0.166,0.63,0.345,1.263,0.547,1.992c0.211,0.016,0.418,0.001,0.623-0.024c-1.349,0.626-2.694,1.225-4.034,1.798
			c0.157-0.238,0.309-0.477,0.47-0.689c-0.332-0.086-0.673-0.269-0.935-0.518c-0.149-0.141-0.198-0.384-0.341-0.536
			c-0.868-0.925-1.304-0.86-2.018,0.282c0.464,0.448,0.722,0.883,0.074,1.417c-0.175,0.144-0.209,0.46-0.308,0.698
			c0.244,0.141,0.499,0.134,0.768,0.084c0.175-0.033,0.345-0.027,0.497,0.014c-1.133,0.466-2.262,0.915-3.386,1.343
			c-0.06-0.111-0.129-0.224-0.176-0.332c-0.385-0.435-0.938-0.704-1.221-1.239c-0.046-0.023-0.1-0.038-0.136-0.072
			c-1.096-1.004-1.866-0.549-1.798,0.987c0.222,0.525,0.002,1.073,0.083,1.606c0.153,0.023,0.306,0.052,0.459,0.082
			c-1.013,0.363-2.019,0.707-3.021,1.042c0.237,0.368,0.315,0.703-0.465,0.919c-0.764,0.211-1.503,0.339-2.23-0.046
			c-1.051,0.329-2.097,0.649-3.133,0.949c-0.24-0.425-0.469-0.858-0.75-1.255c-0.444-0.628-1.117-1.15-1.846-0.924
			c-0.688,0.213-0.508,1.036-0.49,1.652c0.209,0.135,0.248,0.329,0.194,0.555c0.041,0.073,0.059,0.15,0.056,0.233
			c0.111,0.138,0.186,0.302,0.273,0.457c-0.943,0.255-1.878,0.498-2.807,0.731c0.027-0.086,0.05-0.174,0.061-0.269l-0.051-0.06
			c-0.043-0.099-0.085-0.197-0.128-0.295c-0.413-0.871-0.529-1.847-2.089-1.402c-1.298,0.371-1.402,0.081-1.298,1.425
			c0.033,0.423,0.139,0.84,0.212,1.26c0.037,0.039,0.075,0.072,0.114,0.104c-0.987,0.225-1.964,0.438-2.93,0.64
			c-0.159-0.125-0.246-0.29-0.33-0.51c-0.564-1.489-0.778-1.584-2.378-1.408c-0.183,0.02-0.386-0.143-0.579-0.221
			c-0.052,0.043-0.112,0.064-0.18,0.065c-0.3,0.546-0.714,1.038-0.307,1.75c0.159,0.278,0.09,0.687,0.111,1.044
			c-0.783,0.144-1.555,0.279-2.322,0.408c-0.009-0.148-0.04-0.303-0.089-0.465c-0.439-0.783-0.889-1.557-1.674-2.06l-0.072-0.013
			c-0.404,0.172-0.411,0.573-0.513,0.931l-0.236,0.429c-0.396-0.197-0.769-0.382-1.143-0.568l-0.002,0.001
			c-0.153,0.27-0.307,0.54-0.46,0.811c0.036,0.373,0.071,0.746,0.107,1.118c0.06,0.166,0.111,0.309,0.16,0.434
			c-0.484,0.07-0.963,0.136-1.439,0.201c-0.002-0.051-0.002-0.1-0.009-0.156c-0.526-0.719-1.052-1.437-1.579-2.156
			c-0.877-0.293-0.804,0.407-0.919,0.891c-0.104,0.438,0.219,1.066-0.367,1.274c-0.527,0.187-0.836-0.357-1.2-0.653
			c-0.166-0.135-0.339-0.261-0.509-0.391c-0.242,0.099-0.441,0.222-0.584,0.471c-0.564,0.985-0.875,1.021-1.68,0.231
			c-0.259-0.254-0.511-0.516-0.766-0.774c-0.203-0.069-0.406-0.138-0.608-0.206c-0.066,0.081-0.146,0.147-0.238,0.197
			c-0.061,0.204-0.122,0.408-0.183,0.613c0.384,0.778-0.164,1.186-0.564,1.649c-0.349,0.028-0.696,0.055-1.038,0.081
			c-0.156-0.19-0.306-0.386-0.459-0.579c-0.265-0.225-0.59-0.242-0.913-0.266c-0.157,0.302-0.163,0.625-0.156,0.951
			c-8.368,0.545-14.355,0.332-16.722,0.435c-7.682,0.334-19.039-3.006-19.039-3.006l10.689-5.344
			c42.755-28.726,64.466-46.095,71.481-61.126c0.039-0.084,0.083-0.171,0.13-0.262l31.311,18.078v24.384
			c-3.463,2.491-6.953,4.75-10.444,6.806c0.126-0.215,0.239-0.449,0.343-0.7C369.132,183.082,368.549,182.58,367.775,183.048z
			 M349.849,129.153c-2.588-0.535-4.798-0.935-7.098,0.669c-2.84,1.981-5.695,5.173-7.465,8.074
			c-3.015,4.945-8.315,9.318-12.76,12.637c-2.152,1.607-4.321,3.495-6.732,5.141c-2.505,1.71-11.287,8.391-13.318,10.251
			c-3.036,2.78-6.501,4.878-9.686,7.385c-2.778,2.187-5.36,4.576-8.201,6.445c-4.512,2.969-23.626,13.427-28.452,16.253
			c-3.607,2.112-7.421,4.066-11.214,5.805c-2.59,1.187-6.67,3.726-9.605,3.135c0.086-3.013,2.291-6.993-0.035-9.839
			c-2.815-3.445-9.719-3.2-13.536-2.298c-5.292,1.251-10.404,2.192-15.292,4.365c-4.384,1.948-8.589,2.172-13.386,1.87
			c-0.33-2.089,1.826-2.694,3.064-3.976c1.4-1.45,9.282-13.169,12.638-16.177c4.669-4.186,14.382-14.902,25.453-25.411
			c8.465-8.035,18.952-10.138,29.709-13.022c2.075-0.557,18.766-0.937,11.282-4.975c-0.929-0.501-3.388-2.471-4.441-2.798
			c8.874-0.708,14.119,5.566,21.325,8.673c-5.18,10.195-24.368,16.219-17.938,19.804c5.087-4.602,14.451-11.424,16.719-13.077
			c4.448-3.242,8.747-5.718,13.644-8.318c4.045-2.148,9.533-3.865,13.234-6.819c1.04-0.829,4.207-3.429,8.519-5.924
			C329.652,125.074,350.981,122.284,349.849,129.153z M192.341,228.036c1.462-0.592,1.555-0.559,2.018,0.873
			c0.239,0.74,0.543,1.405,1.208,1.853c-1.508,4.715-4.263,8.48-8.482,11.128c-0.408,0.256-0.846,0.47-1.136,0.875
			c0.001,0-0.638,0.092-0.893,0.281c-1.095,0.808-2.36,1.132-3.679,1.303c-0.056-0.15-0.069-0.373-0.176-0.437
			c-0.737-0.436-1.373-0.956-1.934-1.622c-0.408-0.484-1.022-0.745-1.732-0.723c-2.313,0.073-2.47-0.126-2.09-2.437
			c0.017-0.106,0.47-2.02,1.651-1.966c0.238,0.011,2.594-1.769,3.528-2.493c2.031-1.572,3.795-3.432,5.58-5.263
			c0.95-0.974,2.296-1.592,2.75-3.04c0.918-1.283,2.403-1.041,3.051-0.662c0.714,0.418-0.15,1.006-0.256,1.533
			C191.728,227.343,191.799,228.256,192.341,228.036z M111.323,195.09v-41.844L245.52,75.768l82.815,47.813
			c-3.852,1.476-7.514,3.598-10.456,6.171c-8.016,7.015-22.446,10.057-22.446,10.057
			C251.907,107.436,147.419,171.174,111.323,195.09z M379.716,308.203L245.52,385.681l-9.827-5.674
			c-0.92-12.286-3.759-25.452-8-28.799c-2.201-1.737-4.079-3.354-5.247-4.948c-0.18,0.104-0.345,0.221-0.518,0.348
			c-0.311,0.232-0.583,0.522-0.855,0.808c-0.537,0.583-1.026,1.229-1.561,1.881c-0.268,0.324-0.547,0.658-0.869,0.981l-0.122,0.122
			l-0.061,0.061l-0.082,0.072l-0.232,0.209c-0.157,0.14-0.3,0.275-0.489,0.416l-0.541,0.419l-0.531,0.375
			c-0.356,0.248-0.714,0.476-1.073,0.706c-0.721,0.447-1.441,0.87-2.151,1.281l-0.523,0.31l-0.302,0.17l-0.136,0.075
			c-0.04,0.023-0.129,0.063-0.191,0.093c-0.282,0.136-0.534,0.221-0.845,0.299c-0.312,0.067-0.655,0.114-1.045,0.064
			c-0.387-0.048-0.809-0.199-1.154-0.455c-0.349-0.251-0.601-0.587-0.765-0.913c-0.33-0.662-0.365-1.283-0.325-1.851
			c0.034-0.415,0.13-0.808,0.266-1.18c-0.507,0.024-1.099,0.008-1.695-0.239c-0.069-0.034-0.114-0.051-0.203-0.099l-0.262-0.147
			c-0.141-0.095-0.275-0.187-0.386-0.276c-0.229-0.177-0.409-0.319-0.593-0.418l-0.14-0.064c-0.004-0.003-0.041-0.016-0.018-0.012
			l-0.05-0.016l-0.1-0.032c-0.141-0.048-0.248-0.068-0.368-0.1c-0.248-0.056-0.513-0.106-0.773-0.132
			c-0.26-0.024-0.524-0.047-0.771-0.033c-0.27,0.006-0.427,0.046-0.724,0.135c-0.14,0.036-0.259,0.086-0.374,0.134
			c-0.119,0.05-0.234,0.09-0.356,0.148c-0.244,0.116-0.487,0.23-0.724,0.367c-0.48,0.255-0.94,0.559-1.398,0.862
			c-0.224,0.161-0.451,0.315-0.671,0.481c-0.116,0.086-0.205,0.159-0.343,0.257l-0.34,0.245c-0.44,0.338-0.917,0.659-1.39,0.984
			c-0.449,0.325-0.912,0.639-1.321,0.979c-0.411,0.324-0.855,0.702-1.278,1.06c-0.308,0.26-0.637,0.519-0.965,0.777l-2.01-1.161
			c0.168-0.092,0.336-0.183,0.506-0.271c0.476-0.27,0.947-0.522,1.431-0.812c0.488-0.288,0.952-0.563,1.475-0.852
			c0.506-0.301,1.02-0.534,1.522-0.796c0.485-0.25,0.974-0.492,1.461-0.78l0.362-0.212c0.097-0.054,0.235-0.144,0.35-0.214
			c0.238-0.154,0.483-0.298,0.724-0.447c0.489-0.29,0.977-0.58,1.486-0.847c0.249-0.14,0.515-0.257,0.772-0.389
			c0.13-0.064,0.277-0.121,0.415-0.181c0.141-0.062,0.282-0.117,0.411-0.158c0.231-0.09,0.617-0.205,0.907-0.219
			c0.309-0.037,0.605-0.043,0.903-0.042c0.297,0.008,0.589,0.016,0.893,0.048c0.154,0.019,0.324,0.039,0.454,0.061l0.104,0.016
			l0.052,0.008l0.081,0.021l0.257,0.071c0.334,0.116,0.625,0.279,0.865,0.404c0.122,0.066,0.229,0.114,0.331,0.158
			c0.04,0.011,0.078,0.023,0.115,0.036c0.037,0.014,0.128,0.034,0.189,0.05c0.329,0.053,0.739-0.022,1.259-0.167l0.413-0.108
			c0.144-0.036,0.312-0.068,0.468-0.102c0.167-0.028,0.357-0.045,0.537-0.062c0.196-0.002,0.405,0.014,0.608,0.031l1.631,0.128
			l-1.051,1.608c-0.161,0.245-0.3,0.509-0.381,0.794c-0.094,0.278-0.129,0.571-0.133,0.831c0.004,0.256,0.064,0.489,0.12,0.567
			c0.009,0.014,0.014,0.018,0.02,0.024c0.025,0.003,0.096,0.001,0.187-0.013c0.091-0.019,0.237-0.06,0.329-0.104
			c0.031-0.014,0.04-0.01,0.091-0.037l0.139-0.071l0.069-0.035l0.035-0.017c0.009-0.005-0.064,0.035-0.031,0.017l0.004-0.002
			l0.009-0.005l0.017-0.01l0.14-0.075l0.564-0.295l2.211-1.112c0.358-0.186,0.724-0.362,1.071-0.555l0.525-0.283l0.487-0.282
			c0.16-0.084,0.337-0.214,0.511-0.323l0.261-0.17l0.033-0.021l0.016-0.011l0.008-0.005c-0.046,0.037-0.011,0.009-0.02,0.016
			l0.004-0.003l0.056-0.041l0.113-0.082c0.301-0.225,0.614-0.473,0.926-0.74c0.631-0.527,1.282-1.091,2.021-1.568
			c0.369-0.239,0.759-0.455,1.179-0.617c0.174-0.07,0.365-0.127,0.557-0.171c-1.865-2.855-1.328-5.665,3.87-8.992
			c8.35-5.344,33.736-43.757,33.736-43.757c15.093-34.25,92.483-63.707,119.957-87.058L379.716,308.203L379.716,308.203
			L379.716,308.203z M376.76,202.65c-22.557,18.948-94.718,52.731-90.447,49.237c-5.31,3.482-19.571,12.935-24.18,17.24
			c-6.188,5.78-17.316,14.949-24.712,19.278c-15.36,8.99-61.87,55.287-65.589,54.797c-0.549-11.173,6.591-29.496,6.591-29.496
			s9.54-22.4,14.304-34.23c9.115-22.636,9.123-22.69,10.75-23.844c34.729-14.815,13.392-10.747,8.389-19.384
			c1.359-3.644,3.983-13.036,9.217-11.576c8.905,2.485,13.461-15.118,69.98-12.252c7.311,0.371,56.384-12.321,78.299-25.439
			c4.533-2.713,19.561-14.445,19.993-3.567C389.56,188.564,382.106,198.16,376.76,202.65z"/>
		<path fill="#3E3E3E" d="M314.806,201.553c0.002-0.003,0.003-0.005,0.005-0.008c0-0.001,0-0.002,0-0.003L314.806,201.553z"/>
		<path fill="#3E3E3E" d="M340.312,194.666c-0.625-0.392-1.033-0.141-1.057,0.598c-0.024,0.754,0.376,1.466,0.236,2.235
			c0.034,0.02,0.069,0.034,0.103,0.052c0.894-0.28,1.792-0.57,2.695-0.872c-0.072-0.112-0.159-0.227-0.241-0.343
			C341.521,195.726,340.999,195.097,340.312,194.666z"/>
		<path fill="#3E3E3E" d="M222.893,345.748c-0.23-0.006-0.487,0.031-0.741,0.09c0.092,0.141,0.19,0.282,0.293,0.423
			c0.154-0.089,0.317-0.171,0.508-0.24L222.893,345.748z"/>
	</g>
</g>
<g>
	<path d="M557.328,304.762c0,1.193,0,2.088,0.298,2.685l9.247,10.441c0.895,0.597,1.492,1.492,1.492,2.088
		c0,0.895-0.895,1.193-2.088,1.193h-27.743c-1.193,0-2.088-0.597-2.088-1.193v-10.143h-0.597
		c-5.071,5.966-10.441,11.336-19.987,11.336c-17.302,0-25.356-10.143-25.356-30.427V169.629c0-1.193-0.298-1.79-0.895-2.386
		l-8.949-8.353c-0.597-0.895-1.193-1.79-1.193-2.386c0-0.895,0.895-1.193,1.79-1.193h28.638c0.895,0,1.492,0.596,1.492,1.79v133.94
		c0,11.336,3.878,17.302,11.634,17.302c7.159,0,13.424-9.248,13.424-23.865V169.629c0-1.193-0.298-1.79-0.895-2.386l-8.651-8.353
		c-0.895-0.895-1.492-1.79-1.492-2.386c0-0.895,0.895-1.193,1.79-1.193h28.638c1.193,0,1.491,0.596,1.491,1.79V304.762z"/>
	<path d="M621.166,165.751h0.597c5.369-5.668,10.441-10.441,20.583-10.441c14.915,0,24.76,10.441,24.76,30.427v119.025
		c0,1.193,0,2.088,0.596,2.685l9.247,10.441c0.597,0.597,1.193,1.492,1.193,2.088c0,0.895-0.895,1.193-1.79,1.193h-39.377
		c-1.193,0-1.79-0.298-1.79-1.193c0-0.597,0.597-1.492,1.193-2.088l9.248-10.441c0.596-0.597,0.596-1.492,0.596-2.685V185.439
		c0-11.336-3.281-17.302-10.142-17.302c-7.159,0-14.916,9.844-14.916,25.953v110.672c0,1.193,0,2.088,0.298,2.685l9.247,10.441
		c0.895,0.597,1.492,1.492,1.492,2.088c0,0.895-0.895,1.193-1.79,1.193h-39.377c-1.193,0-1.79-0.298-1.79-1.193
		c0-0.597,0.298-1.492,1.193-2.088l9.247-10.441c0.597-0.597,0.597-1.492,0.597-2.685V169.629c0-1.193-0.298-1.79-0.895-2.386
		l-8.949-8.353c-0.597-0.895-1.193-1.79-1.193-2.386c0-0.895,0.895-1.193,1.79-1.193h28.638c1.193,0,1.492,0.596,1.492,1.79v8.65
		H621.166z"/>
	<path d="M769.425,300.884c0,3.878,1.193,7.457,3.878,7.457c2.983,0,6.264-1.492,8.651-5.072c0.597-0.596,0.895-1.193,1.492-1.193
		s0.895,0.597,0.895,1.492c-1.193,8.651-8.054,17.6-15.512,17.6c-9.247,0-14.02-5.966-17.6-11.336
		c-4.773,5.37-12.529,11.336-20.583,11.336c-11.634,0-25.953-7.458-25.953-48.326c0-33.41,5.071-42.36,37.885-68.611
		c5.966-4.773,5.966-7.458,5.966-19.688c0-13.125-2.983-16.407-12.529-16.407c-8.651,0-21.18,6.861-26.549,12.231
		c-0.596,0.597-1.492,0.895-2.386,0.895c-0.596,0-0.895-0.596-0.895-1.492c0-3.579,17.004-24.461,33.709-24.461
		c10.739,0,29.532,6.563,29.532,37.288L769.425,300.884L769.425,300.884z M748.543,212.585h-0.596
		c-16.407,14.02-21.18,24.461-21.18,54.889c0,34.007,3.282,40.868,9.844,40.868c6.563,0,11.932-9.248,11.932-17.6V212.585z"/>
	<path d="M862.194,214.375c0,1.193-0.597,2.386-1.79,2.386c-0.895,0-1.491-1.193-1.79-2.685c-1.79-9.247-3.878-18.197-8.949-31.024
		c-3.878-9.546-8.054-14.915-13.722-14.915c-6.265,0-7.458,7.159-7.458,16.109c0,12.529,6.265,29.532,18.197,48.624
		c11.336,18.197,19.39,39.078,19.39,58.469c0,18.495-13.126,29.831-25.655,29.831c-8.353,0-13.424-3.878-17.898-9.546l-7.756,8.054
		c-0.895,0.597-1.79,1.492-2.983,1.492c-0.596,0-0.895-0.895-0.895-2.088v-57.275c0-0.895,0.298-2.088,1.193-2.088
		c1.492,0,1.492,1.193,1.79,2.685c4.773,24.163,11.634,45.939,22.671,45.939c6.563,0,9.546-5.072,9.546-12.827
		c0-18.495-9.546-38.183-19.092-53.696c-10.739-17.898-17.004-36.394-17.004-54.59c0-19.39,11.932-31.919,22.672-31.919
		c7.159,0,12.529,3.58,17.6,9.546l8.651-7.756c0.596-0.597,1.193-1.79,2.088-1.79c0.596,0,1.193,1.492,1.193,2.983L862.194,214.375
		L862.194,214.375z"/>
	<path d="M951.684,214.375c0,1.193-0.597,2.386-1.79,2.386c-0.895,0-1.492-1.193-1.79-2.685c-1.79-9.247-3.878-18.197-8.949-31.024
		c-3.878-9.546-8.054-14.915-13.722-14.915c-6.265,0-7.458,7.159-7.458,16.109c0,12.529,6.265,29.532,18.197,48.624
		c11.336,18.197,19.39,39.078,19.39,58.469c0,18.495-13.125,29.831-25.654,29.831c-8.353,0-13.424-3.878-17.898-9.546l-7.756,8.054
		c-0.895,0.597-1.79,1.492-2.983,1.492c-0.597,0-0.895-0.895-0.895-2.088v-57.275c0-0.895,0.298-2.088,1.193-2.088
		c1.491,0,1.491,1.193,1.79,2.685c4.773,24.163,11.634,45.939,22.671,45.939c6.563,0,9.546-5.072,9.546-12.827
		c0-18.495-9.546-38.183-19.092-53.696c-10.739-17.898-17.003-36.394-17.003-54.59c0-19.39,11.932-31.919,22.671-31.919
		c7.159,0,12.529,3.58,17.6,9.546l8.651-7.756c0.597-0.597,1.193-1.79,2.088-1.79c0.596,0,1.193,1.492,1.193,2.983L951.684,214.375
		L951.684,214.375z"/>
	<path d="M1012.237,256.436c0,37.587,5.071,51.905,18.793,51.905c9.844,0,14.617-4.773,20.882-14.021
		c0.597-0.895,1.193-1.492,2.088-1.492s1.193,0.597,0.895,1.79c-3.58,14.319-12.827,26.549-27.444,26.549
		c-27.146,0-38.481-26.848-38.481-93.669c0-45.343,13.125-72.19,34.007-72.19c17.302,0,32.217,12.529,32.217,56.082v18.495
		c0,2.088-0.597,3.58-2.685,3.58h-40.271v22.971H1012.237z M1034.312,222.131V192.3c0-15.81-4.176-24.163-11.336-24.163
		c-7.756,0-10.739,8.353-10.739,24.163v29.831H1034.312z"/>
	<path d="M1114.254,304.762c0,1.193,0,2.088,0.299,2.685l10.142,10.441c0.895,0.597,1.193,1.492,1.193,2.088
		c0,0.895-0.597,1.193-1.79,1.193h-39.973c-1.193,0-1.79-0.298-1.79-1.193c0-0.597,0.298-1.492,1.193-2.088l9.248-10.441
		c0.596-0.597,0.596-1.492,0.596-2.685V169.629c0-1.193-0.298-1.79-1.193-2.386l-8.651-8.353c-0.895-0.895-1.193-1.79-1.193-2.386
		c0-0.895,0.597-1.193,1.79-1.193h28.637c0.895,0,1.492,0.596,1.492,1.79v10.142h0.597c4.773-5.966,9.844-11.932,16.705-11.932
		c9.844,0,16.109,15.81,16.109,25.356c0,1.491-0.299,2.685-1.492,2.685s-1.79-1.193-2.386-2.685
		c-3.282-8.054-9.248-11.336-15.512-11.336c-8.651,0-14.021,12.231-14.021,27.444L1114.254,304.762L1114.254,304.762z"/>
	<path d="M1198.373,297.603c0,6.265,2.983,10.739,7.159,10.739c3.58,0,7.458-3.281,9.248-6.265c0.596-0.597,1.193-1.193,1.79-1.193
		s1.193,0.895,0.895,1.79c-2.088,8.352-8.054,18.495-20.583,18.495s-19.39-5.668-19.39-30.129V170.225c0-1.193,0-2.983-0.895-3.878
		l-8.651-8.353c-0.597-0.597-1.492-1.193-1.492-1.79c0-0.895,1.193-1.79,4.176-2.088c13.126-2.386,14.617-25.058,14.617-36.99
		c0-1.492,0.895-2.685,2.386-2.685h8.95c1.193,0,1.79,0.597,1.79,2.088v34.305c0,1.492,0.298,2.685,2.386,2.685h6.861
		c1.492,0,1.79,2.088,0,3.58l-6.861,7.756c-0.895,1.492-2.386,3.281-2.386,5.369L1198.373,297.603L1198.373,297.603z"/>
</g>
</svg>
