<?xml version="1.0" encoding="utf-8"?>
<!-- Generator: Adobe Illustrator 17.0.0, SVG Export Plug-In . SVG Version: 6.00 Build 0)  -->
<!DOCTYPE svg PUBLIC "-//W3C//DTD SVG 1.1//EN" "http://www.w3.org/Graphics/SVG/1.1/DTD/svg11.dtd">
<svg version="1.1" id="Layer_1" xmlns="http://www.w3.org/2000/svg" xmlns:xlink="http://www.w3.org/1999/xlink" x="0px" y="0px"
	 width="1500px" height="1600px" viewBox="0 0 1500 1600" enable-background="new 0 0 1500 1600" xml:space="preserve">
<g>
	<polygon fill="#BDBDBD" points="747.81,64.749 278.458,335.73 278.458,877.692 350.848,919.484 747.81,1148.669 1217.162,877.692 
		1217.162,335.73 	"/>
	<g>
		<path fill="#3E3E3E" d="M750.315,62.871L279.083,334.935v544.131l72.678,41.962l398.551,230.105l471.229-272.064V334.935
			L750.315,62.871z M1121.228,462.354c-2.906,1.757-2.931,4.675-1.963,7.761c0.106,0.012,0.206,0.015,0.312,0.024
			c-3.119,1.766-6.238,3.489-9.357,5.152c0.206-0.376,0.397-0.774,0.573-1.195c-0.461-1.004-1.669-1.593-1.644-2.87
			c-2.433-0.543-4.084-2.964-6.823-2.779c-2.928,3.747,0.115,6.939,0.989,10.331c0.061,0.009,0.118,0.012,0.179,0.018
			c-1.984,1.013-3.968,2.002-5.949,2.973c-0.14-0.106-0.276-0.215-0.413-0.337c-1.829,0.179-3.037-0.898-4.241-2.045
			c-0.944-0.898-1.911-1.784-2.955-2.558c-0.907-0.67-1.942-1.396-3.131-0.677c-1.383,0.837-1.217,2.178-0.874,3.486
			c0.504,1.911,1.047,3.832,1.66,6.044c0.64,0.049,1.268,0.003,1.89-0.073c-4.093,1.899-8.173,3.717-12.239,5.455
			c0.476-0.722,0.937-1.447,1.426-2.09c-1.007-0.261-2.042-0.816-2.837-1.572c-0.452-0.428-0.601-1.165-1.035-1.626
			c-2.633-2.806-3.956-2.609-6.122,0.856c1.408,1.359,2.19,2.679,0.225,4.299c-0.531,0.437-0.634,1.396-0.935,2.118
			c0.74,0.428,1.514,0.407,2.33,0.255c0.531-0.1,1.047-0.082,1.508,0.042c-3.437,1.414-6.863,2.776-10.273,4.075
			c-0.182-0.337-0.391-0.68-0.534-1.007c-1.168-1.32-2.846-2.136-3.704-3.759c-0.14-0.07-0.303-0.115-0.413-0.218
			c-3.325-3.046-5.661-1.666-5.455,2.994c0.673,1.593,0.006,3.255,0.252,4.872c0.464,0.07,0.928,0.158,1.393,0.249
			c-3.073,1.101-6.126,2.145-9.165,3.161c0.719,1.116,0.956,2.133-1.411,2.788c-2.318,0.64-4.56,1.029-6.766-0.14
			c-3.189,0.998-6.362,1.969-9.505,2.879c-0.728-1.289-1.423-2.603-2.275-3.808c-1.347-1.905-3.389-3.489-5.601-2.803
			c-2.087,0.646-1.541,3.143-1.487,5.012c0.634,0.41,0.752,0.998,0.589,1.684c0.124,0.221,0.179,0.455,0.17,0.707
			c0.337,0.419,0.564,0.916,0.828,1.387c-2.861,0.774-5.698,1.511-8.516,2.218c0.082-0.261,0.152-0.528,0.185-0.816l-0.155-0.182
			c-0.13-0.3-0.258-0.598-0.388-0.895c-1.253-2.643-1.605-5.604-6.338-4.254c-3.938,1.126-4.254,0.246-3.938,4.323
			c0.1,1.283,0.422,2.548,0.643,3.823c0.112,0.118,0.228,0.218,0.346,0.316c-2.995,0.683-5.959,1.329-8.889,1.942
			c-0.482-0.379-0.746-0.88-1.001-1.547c-1.711-4.517-2.36-4.806-7.215-4.272c-0.555,0.061-1.171-0.434-1.757-0.671
			c-0.158,0.13-0.34,0.194-0.546,0.197c-0.91,1.657-2.166,3.149-0.931,5.309c0.482,0.843,0.273,2.084,0.337,3.167
			c-2.376,0.437-4.718,0.846-7.045,1.238c-0.027-0.449-0.121-0.919-0.27-1.411c-1.332-2.376-2.697-4.724-5.079-6.25l-0.218-0.039
			c-1.226,0.522-1.247,1.738-1.556,2.825l-0.716,1.302c-1.201-0.598-2.333-1.159-3.468-1.723l-0.006,0.003
			c-0.464,0.819-0.931,1.638-1.396,2.461c0.109,1.132,0.215,2.263,0.325,3.392c0.182,0.504,0.337,0.938,0.485,1.317
			c-1.468,0.212-2.922,0.413-4.366,0.61c-0.006-0.155-0.006-0.303-0.027-0.473c-1.596-2.181-3.192-4.36-4.791-6.541
			c-2.661-0.889-2.439,1.235-2.788,2.703c-0.316,1.329,0.664,3.234-1.113,3.865c-1.599,0.567-2.536-1.083-3.641-1.981
			c-0.504-0.41-1.029-0.792-1.544-1.186c-0.734,0.3-1.338,0.674-1.772,1.429c-1.711,2.988-2.655,3.098-5.097,0.701
			c-0.786-0.771-1.55-1.566-2.324-2.348c-0.616-0.209-1.232-0.419-1.845-0.625c-0.2,0.246-0.443,0.446-0.722,0.598
			c-0.185,0.619-0.37,1.238-0.555,1.86c1.165,2.36-0.498,3.598-1.711,5.003c-1.059,0.085-2.112,0.167-3.149,0.246
			c-0.473-0.576-0.928-1.171-1.393-1.757c-0.804-0.683-1.79-0.734-2.77-0.807c-0.476,0.916-0.495,1.896-0.473,2.885
			c-25.388,1.653-43.552,1.007-50.733,1.32c-23.307,1.013-57.763-9.12-57.763-9.12l32.43-16.213
			c129.715-87.152,195.585-139.849,216.868-185.452c0.118-0.255,0.252-0.519,0.394-0.795l94.995,54.847v73.979
			c-10.507,7.557-21.095,14.411-31.686,20.649c0.382-0.652,0.725-1.362,1.041-2.124
			C1125.344,462.457,1123.575,460.934,1121.228,462.354z M1066.841,298.84c-7.852-1.623-14.557-2.837-21.535,2.03
			c-8.616,6.01-17.278,15.694-22.648,24.496c-9.147,15.003-25.227,28.27-38.713,38.34c-6.529,4.876-13.11,10.604-20.424,15.597
			c-7.6,5.188-34.244,25.458-40.406,31.101c-9.211,8.434-19.724,14.799-29.387,22.406c-8.428,6.635-16.262,13.883-24.881,19.554
			c-13.689,9.008-71.68,40.736-86.321,49.31c-10.943,6.408-22.515,12.336-34.022,17.612c-7.858,3.601-20.236,11.304-29.141,9.511
			c0.261-9.141,6.951-21.216-0.106-29.851c-8.541-10.452-29.487-9.709-41.067-6.972c-16.056,3.795-31.565,6.65-46.395,13.243
			c-13.301,5.91-26.058,6.59-40.612,5.673c-1.001-6.338,5.54-8.173,9.296-12.063c4.247-4.399,28.161-39.954,38.343-49.08
			c14.165-12.7,43.634-45.212,77.222-77.095c25.682-24.378,57.499-30.758,90.135-39.508c6.295-1.69,56.935-2.843,34.229-15.094
			c-2.818-1.52-10.279-7.497-13.474-8.489c26.923-2.148,42.836,16.887,64.698,26.313c-15.716,30.931-73.931,49.207-54.422,60.084
			c15.434-13.962,43.843-34.66,50.724-39.675c13.495-9.836,26.538-17.348,41.395-25.236c12.272-6.517,28.922-11.726,40.151-20.688
			c3.155-2.515,12.764-10.403,25.846-17.973C1005.565,286.465,1070.276,278,1066.841,298.84z M588.974,598.844
			c4.436-1.796,4.718-1.696,6.122,2.649c0.725,2.245,1.647,4.263,3.665,5.622c-4.575,14.305-12.934,25.728-25.734,33.761
			c-1.238,0.777-2.567,1.426-3.447,2.655c0.003,0-1.936,0.279-2.709,0.853c-3.322,2.451-7.16,3.434-11.162,3.953
			c-0.17-0.455-0.209-1.132-0.534-1.326c-2.236-1.323-4.166-2.9-5.868-4.921c-1.238-1.468-3.101-2.26-5.255-2.194
			c-7.017,0.221-7.494-0.382-6.341-7.394c0.052-0.322,1.426-6.129,5.009-5.965c0.722,0.033,7.87-5.367,10.704-7.564
			c6.162-4.769,11.514-10.412,16.929-15.968c2.882-2.955,6.966-4.83,8.343-9.223c2.785-3.893,7.291-3.158,9.257-2.008
			c2.166,1.268-0.455,3.052-0.777,4.651C587.115,596.741,587.329,599.511,588.974,598.844z M343.172,498.888V371.937
			l407.143-235.062l251.255,145.06c-11.687,4.478-22.797,10.916-31.723,18.722c-24.32,21.283-68.099,30.512-68.099,30.512
			C769.693,232.953,452.685,426.329,343.172,498.888z M1157.455,842.064l-407.14,235.062l-29.814-17.215
			c-2.791-37.275-11.405-77.219-24.271-87.374c-6.678-5.27-12.375-10.176-15.919-15.012c-0.546,0.316-1.047,0.671-1.572,1.056
			c-0.944,0.704-1.769,1.584-2.594,2.451c-1.629,1.769-3.113,3.729-4.736,5.707c-0.813,0.983-1.66,1.996-2.636,2.976l-0.37,0.37
			l-0.185,0.185l-0.249,0.218l-0.704,0.634c-0.476,0.425-0.91,0.834-1.484,1.262l-1.641,1.271l-1.611,1.138
			c-1.08,0.752-2.166,1.444-3.255,2.142c-2.187,1.356-4.372,2.64-6.526,3.886l-1.587,0.941l-0.916,0.516l-0.413,0.228
			c-0.121,0.07-0.391,0.191-0.579,0.282c-0.856,0.413-1.62,0.671-2.564,0.907c-0.947,0.203-1.987,0.346-3.17,0.194
			c-1.174-0.146-2.454-0.604-3.501-1.38c-1.059-0.762-1.823-1.781-2.321-2.77c-1.001-2.008-1.107-3.892-0.986-5.616
			c0.103-1.259,0.394-2.451,0.807-3.58c-1.538,0.073-3.334,0.024-5.143-0.725c-0.209-0.103-0.346-0.155-0.616-0.3l-0.795-0.446
			c-0.428-0.288-0.834-0.567-1.171-0.837c-0.695-0.537-1.241-0.968-1.799-1.268l-0.425-0.194c-0.012-0.009-0.124-0.048-0.055-0.036
			l-0.152-0.049l-0.303-0.097c-0.428-0.146-0.752-0.206-1.116-0.303c-0.752-0.17-1.556-0.322-2.345-0.4
			c-0.789-0.073-1.59-0.143-2.339-0.1c-0.819,0.018-1.295,0.14-2.197,0.41c-0.425,0.109-0.786,0.261-1.135,0.407
			c-0.361,0.152-0.71,0.273-1.08,0.449c-0.74,0.352-1.478,0.698-2.197,1.113c-1.456,0.774-2.852,1.696-4.241,2.615
			c-0.68,0.488-1.368,0.956-2.036,1.459c-0.352,0.261-0.622,0.482-1.041,0.78l-1.032,0.743c-1.335,1.026-2.782,1.999-4.217,2.985
			c-1.362,0.986-2.767,1.939-4.008,2.97c-1.247,0.983-2.594,2.13-3.877,3.216c-0.934,0.789-1.933,1.575-2.928,2.357l-6.098-3.522
			c0.51-0.279,1.019-0.555,1.535-0.822c1.444-0.819,2.873-1.584,4.342-2.464c1.481-0.874,2.888-1.708,4.475-2.585
			c1.535-0.913,3.095-1.62,4.618-2.415c1.471-0.758,2.955-1.493,4.433-2.366l1.098-0.643c0.294-0.164,0.713-0.437,1.062-0.649
			c0.722-0.467,1.465-0.904,2.197-1.356c1.484-0.88,2.964-1.76,4.508-2.57c0.755-0.425,1.562-0.78,2.342-1.18
			c0.394-0.194,0.84-0.367,1.259-0.549c0.428-0.188,0.856-0.355,1.247-0.479c0.701-0.273,1.872-0.622,2.752-0.664
			c0.938-0.112,1.836-0.13,2.74-0.127c0.901,0.024,1.787,0.049,2.709,0.146c0.467,0.058,0.983,0.118,1.377,0.185l0.316,0.049
			l0.158,0.024l0.246,0.064l0.78,0.215c1.013,0.352,1.896,0.846,2.624,1.226c0.37,0.2,0.695,0.346,1.004,0.479
			c0.121,0.033,0.237,0.07,0.349,0.109c0.112,0.042,0.388,0.103,0.573,0.152c0.998,0.161,2.242-0.067,3.82-0.507l1.253-0.328
			c0.437-0.109,0.947-0.206,1.42-0.309c0.507-0.085,1.083-0.137,1.629-0.188c0.595-0.006,1.229,0.043,1.845,0.094l4.948,0.388
			l-3.189,4.879c-0.488,0.743-0.91,1.544-1.156,2.409c-0.285,0.844-0.391,1.732-0.404,2.521c0.012,0.777,0.194,1.484,0.364,1.72
			c0.027,0.042,0.042,0.055,0.061,0.073c0.076,0.009,0.291,0.003,0.567-0.039c0.276-0.058,0.719-0.182,0.998-0.316
			c0.094-0.042,0.121-0.03,0.276-0.112l0.422-0.215l0.209-0.106l0.106-0.052c0.027-0.015-0.194,0.106-0.094,0.052l0.012-0.006
			l0.027-0.015l0.052-0.03l0.425-0.228l1.711-0.895l6.708-3.374c1.086-0.564,2.197-1.098,3.249-1.684l1.593-0.859l1.478-0.856
			c0.485-0.255,1.022-0.649,1.55-0.98l0.792-0.516l0.1-0.064l0.049-0.033l0.024-0.015c-0.14,0.112-0.033,0.027-0.061,0.049
			l0.012-0.009l0.17-0.124l0.343-0.249c0.913-0.683,1.863-1.435,2.809-2.245c1.914-1.599,3.889-3.31,6.132-4.757
			c1.12-0.725,2.303-1.38,3.577-1.872c0.528-0.212,1.107-0.385,1.69-0.519c-5.658-8.662-4.029-17.187,11.741-27.281
			c25.333-16.213,102.352-132.755,102.352-132.755c45.791-103.912,280.586-193.282,363.94-264.127L1157.455,842.064
			L1157.455,842.064L1157.455,842.064z M1148.487,521.825c-68.436,57.487-287.367,159.982-274.409,149.381
			c-16.11,10.564-59.377,39.244-73.36,52.305c-18.774,17.536-52.535,45.354-74.974,58.488
			c-46.601,27.275-187.709,167.736-198.992,166.25c-1.666-33.898,19.997-89.489,19.997-89.489s28.944-67.96,43.397-103.851
			c27.654-68.676,27.678-68.84,32.615-72.341c105.365-44.948,40.63-32.606,25.452-58.81c4.123-11.056,12.084-39.55,27.964-35.121
			c27.017,7.539,40.84-45.867,212.314-37.172c22.181,1.126,171.065-37.381,237.553-77.18c13.753-8.231,59.347-43.825,60.657-10.822
			C1187.322,479.089,1164.706,508.202,1148.487,521.825z"/>
		<path fill="#3E3E3E" d="M960.523,518.496c0.006-0.009,0.009-0.015,0.015-0.024c0-0.003,0-0.006,0-0.009L960.523,518.496z"/>
		<path fill="#3E3E3E" d="M1037.906,497.602c-1.896-1.189-3.134-0.428-3.207,1.814c-0.073,2.288,1.141,4.448,0.716,6.781
			c0.103,0.061,0.209,0.103,0.312,0.158c2.712-0.85,5.437-1.729,8.176-2.646c-0.218-0.34-0.482-0.689-0.731-1.041
			C1041.574,500.818,1039.99,498.909,1037.906,497.602z"/>
		<path fill="#3E3E3E" d="M681.667,955.973c-0.698-0.018-1.477,0.094-2.248,0.273c0.279,0.428,0.576,0.856,0.889,1.283
			c0.467-0.27,0.962-0.519,1.541-0.728L681.667,955.973z"/>
	</g>
</g>
<g>
	<path d="M458.821,1444.803c0,1.193,0,2.088,0.298,2.685l9.247,10.441c0.895,0.597,1.492,1.492,1.492,2.088
		c0,0.895-0.895,1.193-2.088,1.193h-27.743c-1.193,0-2.088-0.597-2.088-1.193v-10.143h-0.597
		c-5.071,5.966-10.441,11.336-19.987,11.336c-17.302,0-25.356-10.143-25.356-30.427V1309.67c0-1.193-0.298-1.79-0.895-2.386
		l-8.949-8.353c-0.597-0.895-1.193-1.79-1.193-2.386c0-0.895,0.895-1.193,1.79-1.193h28.638c0.895,0,1.492,0.596,1.492,1.79v133.94
		c0,11.336,3.878,17.302,11.634,17.302c7.159,0,13.424-9.248,13.424-23.865V1309.67c0-1.193-0.298-1.79-0.895-2.386l-8.651-8.353
		c-0.895-0.895-1.492-1.79-1.492-2.386c0-0.895,0.895-1.193,1.79-1.193h28.638c1.193,0,1.491,0.596,1.491,1.79L458.821,1444.803
		L458.821,1444.803z"/>
	<path d="M522.659,1305.792h0.597c5.369-5.668,10.441-10.441,20.583-10.441c14.915,0,24.76,10.441,24.76,30.427v119.025
		c0,1.193,0,2.088,0.596,2.685l9.247,10.441c0.597,0.597,1.193,1.492,1.193,2.088c0,0.895-0.895,1.193-1.79,1.193h-39.377
		c-1.193,0-1.79-0.298-1.79-1.193c0-0.597,0.597-1.492,1.193-2.088l9.248-10.441c0.596-0.597,0.596-1.492,0.596-2.685V1325.48
		c0-11.336-3.281-17.302-10.142-17.302c-7.159,0-14.916,9.844-14.916,25.953v110.672c0,1.193,0,2.088,0.298,2.685l9.247,10.441
		c0.895,0.597,1.492,1.492,1.492,2.088c0,0.895-0.895,1.193-1.79,1.193h-39.377c-1.193,0-1.79-0.298-1.79-1.193
		c0-0.597,0.298-1.492,1.193-2.088l9.247-10.441c0.597-0.597,0.597-1.492,0.597-2.685V1309.67c0-1.193-0.298-1.79-0.895-2.386
		l-8.949-8.353c-0.597-0.895-1.193-1.79-1.193-2.386c0-0.895,0.895-1.193,1.79-1.193h28.638c1.193,0,1.492,0.596,1.492,1.79v8.65
		L522.659,1305.792L522.659,1305.792z"/>
	<path d="M670.918,1440.925c0,3.878,1.193,7.457,3.878,7.457c2.983,0,6.264-1.492,8.651-5.072c0.597-0.596,0.895-1.193,1.492-1.193
		s0.895,0.597,0.895,1.492c-1.193,8.651-8.054,17.6-15.512,17.6c-9.247,0-14.02-5.966-17.6-11.336
		c-4.773,5.37-12.529,11.336-20.583,11.336c-11.634,0-25.953-7.458-25.953-48.326c0-33.41,5.071-42.36,37.885-68.611
		c5.966-4.773,5.966-7.458,5.966-19.688c0-13.125-2.983-16.407-12.529-16.407c-8.651,0-21.18,6.861-26.549,12.231
		c-0.596,0.597-1.492,0.895-2.386,0.895c-0.596,0-0.895-0.596-0.895-1.492c0-3.579,17.004-24.461,33.709-24.461
		c10.739,0,29.532,6.563,29.532,37.288L670.918,1440.925L670.918,1440.925z M650.036,1352.626h-0.596
		c-16.407,14.02-21.18,24.461-21.18,54.889c0,34.007,3.282,40.868,9.844,40.868c6.563,0,11.932-9.248,11.932-17.6V1352.626z"/>
	<path d="M763.687,1354.416c0,1.193-0.597,2.386-1.79,2.386c-0.895,0-1.491-1.193-1.79-2.685c-1.79-9.247-3.878-18.197-8.949-31.024
		c-3.878-9.546-8.054-14.915-13.722-14.915c-6.265,0-7.458,7.159-7.458,16.109c0,12.529,6.265,29.532,18.197,48.624
		c11.336,18.197,19.39,39.078,19.39,58.469c0,18.495-13.126,29.831-25.655,29.831c-8.353,0-13.424-3.878-17.898-9.546l-7.756,8.054
		c-0.895,0.597-1.79,1.492-2.983,1.492c-0.596,0-0.895-0.895-0.895-2.088v-57.275c0-0.895,0.298-2.088,1.193-2.088
		c1.492,0,1.492,1.193,1.79,2.685c4.773,24.163,11.634,45.939,22.671,45.939c6.563,0,9.546-5.072,9.546-12.827
		c0-18.495-9.546-38.183-19.092-53.696c-10.739-17.898-17.004-36.394-17.004-54.59c0-19.39,11.932-31.919,22.672-31.919
		c7.159,0,12.529,3.58,17.6,9.546l8.651-7.756c0.596-0.597,1.193-1.79,2.088-1.79c0.596,0,1.193,1.492,1.193,2.983L763.687,1354.416
		L763.687,1354.416z"/>
	<path d="M853.177,1354.416c0,1.193-0.597,2.386-1.79,2.386c-0.895,0-1.492-1.193-1.79-2.685c-1.79-9.247-3.878-18.197-8.949-31.024
		c-3.878-9.546-8.054-14.915-13.722-14.915c-6.265,0-7.458,7.159-7.458,16.109c0,12.529,6.265,29.532,18.197,48.624
		c11.336,18.197,19.39,39.078,19.39,58.469c0,18.495-13.125,29.831-25.654,29.831c-8.353,0-13.424-3.878-17.898-9.546l-7.756,8.054
		c-0.895,0.597-1.79,1.492-2.983,1.492c-0.597,0-0.895-0.895-0.895-2.088v-57.275c0-0.895,0.298-2.088,1.193-2.088
		c1.491,0,1.491,1.193,1.79,2.685c4.773,24.163,11.634,45.939,22.671,45.939c6.563,0,9.546-5.072,9.546-12.827
		c0-18.495-9.546-38.183-19.092-53.696c-10.739-17.898-17.003-36.394-17.003-54.59c0-19.39,11.932-31.919,22.671-31.919
		c7.159,0,12.529,3.58,17.6,9.546l8.651-7.756c0.597-0.597,1.193-1.79,2.088-1.79c0.596,0,1.193,1.492,1.193,2.983L853.177,1354.416
		L853.177,1354.416z"/>
	<path d="M913.73,1396.477c0,37.587,5.071,51.905,18.793,51.905c9.844,0,14.617-4.773,20.882-14.021
		c0.597-0.895,1.193-1.492,2.088-1.492s1.193,0.597,0.895,1.79c-3.58,14.319-12.827,26.549-27.444,26.549
		c-27.146,0-38.481-26.848-38.481-93.669c0-45.343,13.125-72.19,34.007-72.19c17.302,0,32.217,12.529,32.217,56.082v18.495
		c0,2.088-0.597,3.58-2.685,3.58h-40.271L913.73,1396.477L913.73,1396.477z M935.805,1362.172v-29.831
		c0-15.81-4.176-24.163-11.336-24.163c-7.756,0-10.739,8.353-10.739,24.163v29.831H935.805z"/>
	<path d="M1015.747,1444.803c0,1.193,0,2.088,0.299,2.685l10.142,10.441c0.895,0.597,1.193,1.492,1.193,2.088
		c0,0.895-0.597,1.193-1.79,1.193h-39.973c-1.193,0-1.79-0.298-1.79-1.193c0-0.597,0.298-1.492,1.193-2.088l9.248-10.441
		c0.596-0.597,0.596-1.492,0.596-2.685V1309.67c0-1.193-0.298-1.79-1.193-2.386l-8.651-8.353c-0.895-0.895-1.193-1.79-1.193-2.386
		c0-0.895,0.597-1.193,1.79-1.193h28.637c0.895,0,1.492,0.596,1.492,1.79v10.142h0.597c4.773-5.966,9.844-11.932,16.705-11.932
		c9.844,0,16.109,15.81,16.109,25.356c0,1.491-0.299,2.685-1.492,2.685s-1.79-1.193-2.386-2.685
		c-3.282-8.054-9.248-11.336-15.512-11.336c-8.651,0-14.021,12.231-14.021,27.444L1015.747,1444.803L1015.747,1444.803z"/>
	<path d="M1099.866,1437.644c0,6.265,2.983,10.739,7.159,10.739c3.58,0,7.458-3.281,9.248-6.265c0.596-0.597,1.193-1.193,1.79-1.193
		s1.193,0.895,0.895,1.79c-2.088,8.352-8.054,18.495-20.583,18.495s-19.39-5.668-19.39-30.129v-120.815c0-1.193,0-2.983-0.895-3.878
		l-8.651-8.353c-0.597-0.597-1.492-1.193-1.492-1.79c0-0.895,1.193-1.79,4.176-2.088c13.126-2.386,14.617-25.058,14.617-36.99
		c0-1.492,0.895-2.685,2.386-2.685h8.95c1.193,0,1.79,0.597,1.79,2.088v34.305c0,1.492,0.298,2.685,2.386,2.685h6.861
		c1.492,0,1.79,2.088,0,3.58l-6.861,7.756c-0.895,1.492-2.386,3.281-2.386,5.369L1099.866,1437.644L1099.866,1437.644z"/>
</g>
</svg>
